<svg xmlns="http://www.w3.org/2000/svg" viewBox="0 0 100 100">
  <circle cx="50" cy="50" r="48" fill="none" stroke="#6366f1" stroke-width="2" opacity="0.3"/>
  <!-- Globe lines -->
  <ellipse cx="50" cy="50" rx="48" ry="48" fill="none" stroke="#818cf8" stroke-width="1.5" opacity="0.5"/>
  <ellipse cx="50" cy="50" rx="28" ry="48" fill="none" stroke="#818cf8" stroke-width="1" opacity="0.4"/>
  <ellipse cx="50" cy="50" rx="10" ry="48" fill="none" stroke="#818cf8" stroke-width="1" opacity="0.3"/>
  <line x1="2" y1="50" x2="98" y2="50" stroke="#818cf8" stroke-width="1" opacity="0.4"/>
  <line x1="10" y1="28" x2="90" y2="28" stroke="#818cf8" stroke-width="1" opacity="0.3"/>
  <line x1="10" y1="72" x2="90" y2="72" stroke="#818cf8" stroke-width="1" opacity="0.3"/>
  <!-- Trophy cup -->
  <path d="M35 20 h30 v22 c0 14-10 22-15 22 c-5 0-15-8-15-22 Z" fill="#6366f1" opacity="0.9"/>
  <rect x="44" y="64" width="12" height="8" fill="#6366f1" opacity="0.9"/>
  <rect x="36" y="72" width="28" height="4" rx="2" fill="#818cf8"/>
  <path d="M35 25 h-8 c0 0-4 14 8 18" fill="none" stroke="#818cf8" stroke-width="2.5" stroke-linecap="round"/>
  <path d="M65 25 h8 c0 0 4 14-8 18" fill="none" stroke="#818cf8" stroke-width="2.5" stroke-linecap="round"/>
</svg>
